<svg width="1200" height="368" viewBox="0 0 1200 368" fill="none" xmlns="http://www.w3.org/2000/svg">
<mask id="mask0" mask-type="alpha" maskUnits="userSpaceOnUse" x="0" y="0" width="1200" height="368">
<rect width="1200" height="368" fill="#FFC700"/>
</mask>
<g mask="url(#mask0)">
<rect x="422.665" y="-279" width="43" height="1360" transform="rotate(45 422.665 -279)" fill="#FFC700"/>
<rect x="313.665" y="-279" width="43" height="1360" transform="rotate(45 313.665 -279)" fill="#FFC700"/>
<rect x="1652.67" y="-279" width="43" height="1360" transform="rotate(45 1652.67 -279)" fill="#FFC700"/>
<rect x="1767.67" y="-279" width="43" height="1360" transform="rotate(45 1767.67 -279)" fill="#FFC700"/>
<rect x="1204.67" y="-279" width="43" height="1360" transform="rotate(45 1204.67 -279)" fill="#FFC700"/>
<rect x="758.519" y="-278.646" width="42" height="1360" transform="rotate(45 758.519 -278.646)" fill="#FFC700"/>
<rect x="1428.67" y="-279" width="43" height="1360" transform="rotate(45 1428.67 -279)" fill="#FFC700"/>
<rect x="1316.67" y="-279" width="43" height="1360" transform="rotate(45 1316.67 -279)" fill="#FFC700"/>
<rect x="534.665" y="-279" width="43" height="1360" transform="rotate(45 534.665 -279)" fill="#FFC700"/>
<rect x="646.665" y="-279" width="43" height="1360" transform="rotate(45 646.665 -279)" fill="#FFC700"/>
<rect x="869.665" y="-279" width="43" height="1360" transform="rotate(45 869.665 -279)" fill="#FFC700"/>
<rect x="981.519" y="-278.646" width="42" height="1360" transform="rotate(45 981.519 -278.646)" fill="#FFC700"/>
<rect x="1092.67" y="-279" width="43" height="1360" transform="rotate(45 1092.67 -279)" fill="#FFC700"/>
<rect x="1540.67" y="-279" width="43" height="1360" transform="rotate(45 1540.67 -279)" fill="#FFC700"/>
</g>
</svg>
