<svg width="50" height="63" viewBox="0 0 50 63" fill="none" xmlns="http://www.w3.org/2000/svg">
<circle cx="25.3086" cy="4.93827" r="3.93827" fill="#FFC700" stroke="#5A4D46" stroke-width="2"/>
<circle cx="25" cy="54.6296" r="7.33333" fill="#FFC700" stroke="#5A4D46" stroke-width="2"/>
<path d="M5.93823 25.3086C5.93823 14.6107 14.6106 5.93826 25.3086 5.93826C36.0066 5.93826 44.679 14.6107 44.679 25.3086V47.1481H5.93823V25.3086Z" fill="#FFC700" stroke="#5A4D46" stroke-width="2"/>
<rect x="1" y="46.9136" width="48" height="6.64198" rx="3.32099" fill="#FFC700" stroke="#5A4D46" stroke-width="2"/>
<path d="M17.0381 27.1953C16.2959 27.1953 15.6937 26.9593 15.2314 26.4873C14.792 26.0381 14.5723 25.4603 14.5723 24.7539V21.3359L17.0381 19.4316C17.7803 19.4316 18.3825 19.6676 18.8447 20.1396C19.2842 20.5889 19.5039 21.1667 19.5039 21.873L18.5762 22.3125H18.5273V21.873C18.5273 21.4368 18.4102 21.0837 18.1758 20.8135C17.8861 20.4782 17.5068 20.3105 17.0381 20.3105C16.5661 20.3105 16.1868 20.4782 15.9004 20.8135C15.666 21.0837 15.5488 21.4368 15.5488 21.873V24.7539C15.5488 25.1836 15.666 25.5368 15.9004 25.8135C16.1836 26.1488 16.5628 26.3164 17.0381 26.3164C17.5036 26.3164 17.8828 26.1488 18.1758 25.8135C18.4102 25.5433 18.5273 25.1901 18.5273 24.7539L19.4551 24.3145H19.5039V25.291L17.0381 27.1953ZM20.7246 24.4512V24.4023L21.0029 23.8164H21.457V21.3359L23.9229 19.4316C24.665 19.4316 25.2673 19.6676 25.7295 20.1396C26.1689 20.5889 26.3887 21.1667 26.3887 21.873V26.7461L25.4609 27.1953H25.4121V21.873C25.4121 21.4368 25.2949 21.0837 25.0605 20.8135C24.7708 20.4782 24.3916 20.3105 23.9229 20.3105C23.4443 20.3105 23.0651 20.4782 22.7852 20.8135C22.5508 21.0934 22.4336 21.4466 22.4336 21.873V23.8164H24.7285V23.8652L24.4502 24.4512H22.4336V26.7559L21.5059 27.1953H21.457V24.4512H20.7246ZM27.6094 27V26.9512L27.8877 26.3652H28.3418V19.8711L29.2695 19.4316H29.3184V26.3652H32.6533V26.4141L32.375 27H27.6094ZM32.3359 27V26.9512L32.6143 26.3652H33.0684V19.8711L33.9961 19.4316H34.0449V26.3652H37.3799V26.4141L37.1016 27H32.3359ZM16.7891 38V37.9512L17.0723 37.3652L19.6602 34.8262C20.4284 34.0905 20.8125 33.4378 20.8125 32.8682C20.8125 32.458 20.6921 32.1064 20.4512 31.8135C20.1745 31.4782 19.7952 31.3105 19.3135 31.3105C18.8577 31.3105 18.4785 31.4782 18.1758 31.8135C17.9414 32.0739 17.8242 32.3994 17.8242 32.79C17.8242 33.0081 17.8877 33.2246 18.0146 33.4395L17.1943 33.835H17.1455C16.9469 33.4834 16.8477 32.9837 16.8477 32.3359L19.3135 30.4316C20.0719 30.4316 20.6742 30.6676 21.1201 31.1396C21.5596 31.6084 21.7793 32.152 21.7793 32.7705C21.7793 33.6396 21.3317 34.4404 20.4365 35.1729L17.8877 37.3652H21.7842V37.4141L21.5059 38H16.7891ZM23.8594 38.1953V31.4473L22.668 32.0039V31.4424L24.7871 30.4316H24.8359V37.7559L23.9082 38.1953H23.8594ZM28.6689 38.1953C28.0537 38.153 27.5801 37.9967 27.248 37.7266C26.8444 37.3978 26.6426 36.9144 26.6426 36.2764L27.5703 35.8369H27.6191V36.2764C27.6191 36.6702 27.7249 36.9632 27.9365 37.1553C28.1383 37.3343 28.3825 37.4238 28.6689 37.4238C28.9814 37.4238 29.2337 37.3245 29.4258 37.126C29.6211 36.9274 29.7188 36.6458 29.7188 36.2812C29.7188 35.9134 29.6097 35.6611 29.3916 35.5244C29.2028 35.4072 28.9603 35.3486 28.6641 35.3486C27.9023 35.3486 27.3717 35.1729 27.0723 34.8213C26.9225 34.6423 26.8477 34.3167 26.8477 33.8447L28.6689 32.4336C29.1442 32.4434 29.543 32.5866 29.8652 32.8633C30.1257 33.0879 30.2868 33.3809 30.3486 33.7422L29.4209 34.1816H29.3721V34.04C29.3721 33.8057 29.3232 33.6283 29.2256 33.5078C29.0628 33.306 28.8398 33.2051 28.5566 33.2051C28.2767 33.2051 28.0667 33.293 27.9268 33.4688C27.8258 33.5957 27.7754 33.752 27.7754 33.9375C27.7754 34.1458 27.8633 34.3118 28.0391 34.4355C28.1367 34.5039 28.3451 34.5381 28.6641 34.5381C29.3639 34.5381 29.8669 34.6732 30.1729 34.9434C30.5212 35.2493 30.6953 35.8109 30.6953 36.6279L28.6689 38.1953ZM32.624 38.1953V33.2637H31.3057V33.2148L31.584 32.6289H32.624V30.8711L33.5518 30.4316H33.6006V32.6289H34.9189V32.6777L34.6406 33.2637H33.6006V37.7559L32.6729 38.1953H32.624Z" fill="#5A4D46"/>
<path d="M17.0381 27.1953V27.4453H17.1234L17.1909 27.3932L17.0381 27.1953ZM15.2314 26.4873L15.0527 26.6621L15.0528 26.6622L15.2314 26.4873ZM14.5723 21.3359L14.4195 21.1381L14.3223 21.2131V21.3359H14.5723ZM17.0381 19.4316V19.1816H16.9528L16.8853 19.2338L17.0381 19.4316ZM18.8447 20.1396L19.0234 19.9648L19.0233 19.9647L18.8447 20.1396ZM19.5039 21.873L19.6109 22.099L19.7539 22.0313V21.873H19.5039ZM18.5762 22.3125V22.5625H18.6324L18.6832 22.5384L18.5762 22.3125ZM18.5273 22.3125H18.2773V22.5625H18.5273V22.3125ZM18.1758 20.8135L17.9866 20.9769L17.9869 20.9773L18.1758 20.8135ZM15.9004 20.8135L16.0892 20.9773L16.0905 20.9759L15.9004 20.8135ZM15.9004 25.8135L16.0914 25.6522L16.0912 25.6519L15.9004 25.8135ZM18.1758 25.8135L18.364 25.978L18.3646 25.9773L18.1758 25.8135ZM18.5273 24.7539L18.4203 24.528L18.2773 24.5957V24.7539H18.5273ZM19.4551 24.3145V24.0645H19.3989L19.3481 24.0885L19.4551 24.3145ZM19.5039 24.3145H19.7539V24.0645H19.5039V24.3145ZM19.5039 25.291L19.6567 25.4889L19.7539 25.4138V25.291H19.5039ZM17.0381 26.9453C16.354 26.9453 15.8193 26.7302 15.4101 26.3124L15.0528 26.6622C15.5681 27.1884 16.2378 27.4453 17.0381 27.4453V26.9453ZM15.4102 26.3125C15.0222 25.9159 14.8223 25.4038 14.8223 24.7539H14.3223C14.3223 25.5168 14.5618 26.1602 15.0527 26.6621L15.4102 26.3125ZM14.8223 24.7539V21.3359H14.3223V24.7539H14.8223ZM14.7251 21.5338L17.1909 19.6295L16.8853 19.2338L14.4195 21.1381L14.7251 21.5338ZM17.0381 19.6816C17.7222 19.6816 18.2569 19.8967 18.6661 20.3146L19.0233 19.9647C18.5081 19.4386 17.8384 19.1816 17.0381 19.1816V19.6816ZM18.666 20.3145C19.054 20.711 19.2539 21.2232 19.2539 21.873H19.7539C19.7539 21.1101 19.5144 20.4667 19.0234 19.9648L18.666 20.3145ZM19.3969 21.6471L18.4692 22.0866L18.6832 22.5384L19.6109 22.099L19.3969 21.6471ZM18.5762 22.0625H18.5273V22.5625H18.5762V22.0625ZM18.7773 22.3125V21.873H18.2773V22.3125H18.7773ZM18.7773 21.873C18.7773 21.3904 18.6466 20.9747 18.3646 20.6497L17.9869 20.9773C18.1737 21.1926 18.2773 21.4833 18.2773 21.873H18.7773ZM18.3649 20.65C18.0247 20.2563 17.5747 20.0605 17.0381 20.0605V20.5605C17.439 20.5605 17.7474 20.7001 17.9866 20.9769L18.3649 20.65ZM17.0381 20.0605C16.4988 20.0605 16.0479 20.2559 15.7103 20.6511L16.0905 20.9759C16.3258 20.7005 16.6334 20.5605 17.0381 20.5605V20.0605ZM15.7115 20.6497C15.4296 20.9747 15.2988 21.3904 15.2988 21.873H15.7988C15.7988 21.4833 15.9025 21.1926 16.0892 20.9773L15.7115 20.6497ZM15.2988 21.873V24.7539H15.7988V21.873H15.2988ZM15.2988 24.7539C15.2988 25.2313 15.4302 25.6452 15.7096 25.9751L16.0912 25.6519C15.9018 25.4284 15.7988 25.1359 15.7988 24.7539H15.2988ZM15.7094 25.9748C16.0444 26.3714 16.4961 26.5664 17.0381 26.5664V26.0664C16.6295 26.0664 16.3228 25.9261 16.0914 25.6522L15.7094 25.9748ZM17.0381 26.5664C17.572 26.5664 18.0212 26.3703 18.364 25.978L17.9875 25.649C17.7444 25.9272 17.4352 26.0664 17.0381 26.0664V26.5664ZM18.3646 25.9773C18.6466 25.6522 18.7773 25.2365 18.7773 24.7539H18.2773C18.2773 25.1437 18.1737 25.4344 17.9869 25.6497L18.3646 25.9773ZM18.6344 24.9798L19.5621 24.5404L19.3481 24.0885L18.4203 24.528L18.6344 24.9798ZM19.4551 24.5645H19.5039V24.0645H19.4551V24.5645ZM19.2539 24.3145V25.291H19.7539V24.3145H19.2539ZM19.3511 25.0932L16.8853 26.9974L17.1909 27.3932L19.6567 25.4889L19.3511 25.0932ZM20.7246 24.4512H20.4746V24.7012H20.7246V24.4512ZM20.7246 24.4023L20.4988 24.2951L20.4746 24.346V24.4023H20.7246ZM21.0029 23.8164V23.5664H20.8449L20.7771 23.7091L21.0029 23.8164ZM21.457 23.8164V24.0664H21.707V23.8164H21.457ZM21.457 21.3359L21.3042 21.1381L21.207 21.2131V21.3359H21.457ZM23.9229 19.4316V19.1816H23.8376L23.77 19.2338L23.9229 19.4316ZM25.7295 20.1396L25.9082 19.9648L25.9081 19.9647L25.7295 20.1396ZM26.3887 26.7461L26.4976 26.9711L26.6387 26.9028V26.7461H26.3887ZM25.4609 27.1953V27.4453H25.5183L25.5699 27.4203L25.4609 27.1953ZM25.4121 27.1953H25.1621V27.4453H25.4121V27.1953ZM25.0605 20.8135L24.8714 20.9769L24.8717 20.9773L25.0605 20.8135ZM22.7852 20.8135L22.9768 20.974L22.9771 20.9737L22.7852 20.8135ZM22.4336 23.8164H22.1836V24.0664H22.4336V23.8164ZM24.7285 23.8164H24.9785V23.5664H24.7285V23.8164ZM24.7285 23.8652L24.9543 23.9725L24.9785 23.9216V23.8652H24.7285ZM24.4502 24.4512V24.7012H24.6082L24.676 24.5584L24.4502 24.4512ZM22.4336 24.4512V24.2012H22.1836V24.4512H22.4336ZM22.4336 26.7559L22.5406 26.9818L22.6836 26.9141V26.7559H22.4336ZM21.5059 27.1953V27.4453H21.5621L21.6129 27.4212L21.5059 27.1953ZM21.457 27.1953H21.207V27.4453H21.457V27.1953ZM21.457 24.4512H21.707V24.2012H21.457V24.4512ZM20.9746 24.4512V24.4023H20.4746V24.4512H20.9746ZM20.9504 24.5096L21.2287 23.9237L20.7771 23.7091L20.4988 24.2951L20.9504 24.5096ZM21.0029 24.0664H21.457V23.5664H21.0029V24.0664ZM21.707 23.8164V21.3359H21.207V23.8164H21.707ZM21.6098 21.5338L24.0757 19.6295L23.77 19.2338L21.3042 21.1381L21.6098 21.5338ZM23.9229 19.6816C24.6069 19.6816 25.1417 19.8967 25.5509 20.3146L25.9081 19.9647C25.3928 19.4386 24.7232 19.1816 23.9229 19.1816V19.6816ZM25.5508 20.3145C25.9387 20.711 26.1387 21.2232 26.1387 21.873H26.6387C26.6387 21.1101 26.3992 20.4667 25.9082 19.9648L25.5508 20.3145ZM26.1387 21.873V26.7461H26.6387V21.873H26.1387ZM26.2797 26.5211L25.352 26.9703L25.5699 27.4203L26.4976 26.9711L26.2797 26.5211ZM25.4609 26.9453H25.4121V27.4453H25.4609V26.9453ZM25.6621 27.1953V21.873H25.1621V27.1953H25.6621ZM25.6621 21.873C25.6621 21.3904 25.5314 20.9747 25.2494 20.6497L24.8717 20.9773C25.0585 21.1926 25.1621 21.4833 25.1621 21.873H25.6621ZM25.2497 20.65C24.9095 20.2563 24.4595 20.0605 23.9229 20.0605V20.5605C24.3237 20.5605 24.6322 20.7001 24.8714 20.9769L25.2497 20.65ZM23.9229 20.0605C23.3782 20.0605 22.9256 20.2552 22.5933 20.6532L22.9771 20.9737C23.2046 20.7012 23.5104 20.5605 23.9229 20.5605V20.0605ZM22.5935 20.653C22.3153 20.9853 22.1836 21.3983 22.1836 21.873H22.6836C22.6836 21.4949 22.7863 21.2016 22.9768 20.974L22.5935 20.653ZM22.1836 21.873V23.8164H22.6836V21.873H22.1836ZM22.4336 24.0664H24.7285V23.5664H22.4336V24.0664ZM24.4785 23.8164V23.8652H24.9785V23.8164H24.4785ZM24.5027 23.758L24.2244 24.3439L24.676 24.5584L24.9543 23.9725L24.5027 23.758ZM24.4502 24.2012H22.4336V24.7012H24.4502V24.2012ZM22.1836 24.4512V26.7559H22.6836V24.4512H22.1836ZM22.3266 26.5299L21.3988 26.9694L21.6129 27.4212L22.5406 26.9818L22.3266 26.5299ZM21.5059 26.9453H21.457V27.4453H21.5059V26.9453ZM21.707 27.1953V24.4512H21.207V27.1953H21.707ZM21.457 24.2012H20.7246V24.7012H21.457V24.2012ZM27.6094 27H27.3594V27.25H27.6094V27ZM27.6094 26.9512L27.3836 26.8439L27.3594 26.8948V26.9512H27.6094ZM27.8877 26.3652V26.1152H27.7297L27.6619 26.258L27.8877 26.3652ZM28.3418 26.3652V26.6152H28.5918V26.3652H28.3418ZM28.3418 19.8711L28.2348 19.6452L28.0918 19.7129V19.8711H28.3418ZM29.2695 19.4316V19.1816H29.2133L29.1625 19.2057L29.2695 19.4316ZM29.3184 19.4316H29.5684V19.1816H29.3184V19.4316ZM29.3184 26.3652H29.0684V26.6152H29.3184V26.3652ZM32.6533 26.3652H32.9033V26.1152H32.6533V26.3652ZM32.6533 26.4141L32.8791 26.5213L32.9033 26.4704V26.4141H32.6533ZM32.375 27V27.25H32.533L32.6008 27.1073L32.375 27ZM27.8594 27V26.9512H27.3594V27H27.8594ZM27.8352 27.0584L28.1135 26.4725L27.6619 26.258L27.3836 26.8439L27.8352 27.0584ZM27.8877 26.6152H28.3418V26.1152H27.8877V26.6152ZM28.5918 26.3652V19.8711H28.0918V26.3652H28.5918ZM28.4488 20.097L29.3766 19.6576L29.1625 19.2057L28.2348 19.6452L28.4488 20.097ZM29.2695 19.6816H29.3184V19.1816H29.2695V19.6816ZM29.0684 19.4316V26.3652H29.5684V19.4316H29.0684ZM29.3184 26.6152H32.6533V26.1152H29.3184V26.6152ZM32.4033 26.3652V26.4141H32.9033V26.3652H32.4033ZM32.4275 26.3068L32.1492 26.8927L32.6008 27.1073L32.8791 26.5213L32.4275 26.3068ZM32.375 26.75H27.6094V27.25H32.375V26.75ZM32.3359 27H32.0859V27.25H32.3359V27ZM32.3359 26.9512L32.1101 26.8439L32.0859 26.8948V26.9512H32.3359ZM32.6143 26.3652V26.1152H32.4562L32.3884 26.258L32.6143 26.3652ZM33.0684 26.3652V26.6152H33.3184V26.3652H33.0684ZM33.0684 19.8711L32.9613 19.6452L32.8184 19.7129V19.8711H33.0684ZM33.9961 19.4316V19.1816H33.9399L33.8891 19.2057L33.9961 19.4316ZM34.0449 19.4316H34.2949V19.1816H34.0449V19.4316ZM34.0449 26.3652H33.7949V26.6152H34.0449V26.3652ZM37.3799 26.3652H37.6299V26.1152H37.3799V26.3652ZM37.3799 26.4141L37.6057 26.5213L37.6299 26.4704V26.4141H37.3799ZM37.1016 27V27.25H37.2596L37.3274 27.1073L37.1016 27ZM32.5859 27V26.9512H32.0859V27H32.5859ZM32.5618 27.0584L32.8401 26.4725L32.3884 26.258L32.1101 26.8439L32.5618 27.0584ZM32.6143 26.6152H33.0684V26.1152H32.6143V26.6152ZM33.3184 26.3652V19.8711H32.8184V26.3652H33.3184ZM33.1754 20.097L34.1031 19.6576L33.8891 19.2057L32.9613 19.6452L33.1754 20.097ZM33.9961 19.6816H34.0449V19.1816H33.9961V19.6816ZM33.7949 19.4316V26.3652H34.2949V19.4316H33.7949ZM34.0449 26.6152H37.3799V26.1152H34.0449V26.6152ZM37.1299 26.3652V26.4141H37.6299V26.3652H37.1299ZM37.1541 26.3068L36.8757 26.8927L37.3274 27.1073L37.6057 26.5213L37.1541 26.3068ZM37.1016 26.75H32.3359V27.25H37.1016V26.75ZM16.7891 38H16.5391V38.25H16.7891V38ZM16.7891 37.9512L16.564 37.8424L16.5391 37.8939V37.9512H16.7891ZM17.0723 37.3652L16.8972 37.1868L16.8661 37.2173L16.8472 37.2564L17.0723 37.3652ZM19.6602 34.8262L19.4872 34.6456L19.4851 34.6477L19.6602 34.8262ZM20.4512 31.8135L20.6443 31.6547L20.644 31.6544L20.4512 31.8135ZM18.1758 31.8135L17.9902 31.6459L17.99 31.6462L18.1758 31.8135ZM18.0146 33.4395L18.1232 33.6646L18.3683 33.5465L18.2299 33.3123L18.0146 33.4395ZM17.1943 33.835V34.085H17.2515L17.3029 34.0602L17.1943 33.835ZM17.1455 33.835L16.9278 33.9579L16.9996 34.085H17.1455V33.835ZM16.8477 32.3359L16.6948 32.1381L16.5977 32.2131V32.3359H16.8477ZM19.3135 30.4316V30.1816H19.2282L19.1607 30.2338L19.3135 30.4316ZM21.1201 31.1396L21.3025 30.9687L21.3018 30.968L21.1201 31.1396ZM20.4365 35.1729L20.2782 34.9793L20.2735 34.9833L20.4365 35.1729ZM17.8877 37.3652L17.7247 37.1757L17.2137 37.6152H17.8877V37.3652ZM21.7842 37.3652H22.0342V37.1152H21.7842V37.3652ZM21.7842 37.4141L22.01 37.5213L22.0342 37.4704V37.4141H21.7842ZM21.5059 38V38.25H21.6639L21.7317 38.1073L21.5059 38ZM17.0391 38V37.9512H16.5391V38H17.0391ZM17.0141 38.06L17.2974 37.474L16.8472 37.2564L16.564 37.8424L17.0141 38.06ZM17.2474 37.5437L19.8352 35.0046L19.4851 34.6477L16.8972 37.1868L17.2474 37.5437ZM19.8331 35.0067C20.612 34.2608 21.0625 33.5454 21.0625 32.8682H20.5625C20.5625 33.3302 20.2448 33.9202 19.4872 34.6456L19.8331 35.0067ZM21.0625 32.8682C21.0625 32.4051 20.925 31.9962 20.6443 31.6547L20.2581 31.9723C20.4591 32.2167 20.5625 32.5109 20.5625 32.8682H21.0625ZM20.644 31.6544C20.3143 31.2548 19.8607 31.0605 19.3135 31.0605V31.5605C19.7298 31.5605 20.0347 31.7016 20.2584 31.9726L20.644 31.6544ZM19.3135 31.0605C18.7877 31.0605 18.3408 31.2576 17.9902 31.6459L18.3613 31.981C18.6162 31.6988 18.9278 31.5605 19.3135 31.5605V31.0605ZM17.99 31.6462C17.7094 31.9579 17.5742 32.3453 17.5742 32.79H18.0742C18.0742 32.4535 18.1734 32.1898 18.3616 31.9807L17.99 31.6462ZM17.5742 32.79C17.5742 33.059 17.653 33.3189 17.7994 33.5666L18.2299 33.3123C18.1223 33.1303 18.0742 32.9573 18.0742 32.79H17.5742ZM17.9061 33.2143L17.0858 33.6098L17.3029 34.0602L18.1232 33.6646L17.9061 33.2143ZM17.1943 33.585H17.1455V34.085H17.1943V33.585ZM17.3632 33.712C17.1949 33.4141 17.0977 32.9641 17.0977 32.3359H16.5977C16.5977 33.0034 16.6989 33.5527 16.9278 33.9579L17.3632 33.712ZM17.0005 32.5338L19.4663 30.6295L19.1607 30.2338L16.6948 32.1381L17.0005 32.5338ZM19.3135 30.6816C20.0158 30.6816 20.5477 30.8978 20.9384 31.3113L21.3018 30.968C20.8006 30.4375 20.1281 30.1816 19.3135 30.1816V30.6816ZM20.9377 31.3106C21.3356 31.735 21.5293 32.2182 21.5293 32.7705H22.0293C22.0293 32.0858 21.7835 31.4818 21.3025 30.9687L20.9377 31.3106ZM21.5293 32.7705C21.5293 33.5417 21.1359 34.2776 20.2782 34.9794L20.5948 35.3663C21.5275 34.6032 22.0293 33.7376 22.0293 32.7705H21.5293ZM20.2735 34.9833L17.7247 37.1757L18.0507 37.5548L20.5996 35.3624L20.2735 34.9833ZM17.8877 37.6152H21.7842V37.1152H17.8877V37.6152ZM21.5342 37.3652V37.4141H22.0342V37.3652H21.5342ZM21.5584 37.3068L21.28 37.8927L21.7317 38.1073L22.01 37.5213L21.5584 37.3068ZM21.5059 37.75H16.7891V38.25H21.5059V37.75ZM23.8594 38.1953H23.6094V38.4453H23.8594V38.1953ZM23.8594 31.4473H24.1094V31.0545L23.7536 31.2208L23.8594 31.4473ZM22.668 32.0039H22.418V32.3966L22.7738 32.2304L22.668 32.0039ZM22.668 31.4424L22.5603 31.2167L22.418 31.2846V31.4424H22.668ZM24.7871 30.4316V30.1816H24.7305L24.6795 30.206L24.7871 30.4316ZM24.8359 30.4316H25.0859V30.1816H24.8359V30.4316ZM24.8359 37.7559L24.943 37.9818L25.0859 37.9141V37.7559H24.8359ZM23.9082 38.1953V38.4453H23.9644L24.0152 38.4212L23.9082 38.1953ZM24.1094 38.1953V31.4473H23.6094V38.1953H24.1094ZM23.7536 31.2208L22.5621 31.7774L22.7738 32.2304L23.9652 31.6738L23.7536 31.2208ZM22.918 32.0039V31.4424H22.418V32.0039H22.918ZM22.7756 31.668L24.8947 30.6573L24.6795 30.206L22.5603 31.2167L22.7756 31.668ZM24.7871 30.6816H24.8359V30.1816H24.7871V30.6816ZM24.5859 30.4316V37.7559H25.0859V30.4316H24.5859ZM24.7289 37.5299L23.8012 37.9694L24.0152 38.4212L24.943 37.9818L24.7289 37.5299ZM23.9082 37.9453H23.8594V38.4453H23.9082V37.9453ZM28.6689 38.1953L28.6518 38.4447L28.7467 38.4513L28.8219 38.3931L28.6689 38.1953ZM27.248 37.7266L27.0902 37.9204L27.0903 37.9205L27.248 37.7266ZM26.6426 36.2764L26.5356 36.0504L26.3926 36.1182V36.2764H26.6426ZM27.5703 35.8369V35.5869H27.5141L27.4633 35.611L27.5703 35.8369ZM27.6191 35.8369H27.8691V35.5869H27.6191V35.8369ZM27.9365 37.1553L27.7685 37.3404L27.7706 37.3423L27.9365 37.1553ZM29.4258 37.126L29.2475 36.9507L29.2461 36.9522L29.4258 37.126ZM29.3916 35.5244L29.5244 35.3126L29.5234 35.312L29.3916 35.5244ZM27.0723 34.8213L26.8805 34.9817L26.882 34.9834L27.0723 34.8213ZM26.8477 33.8447L26.6945 33.6471L26.5977 33.7222V33.8447H26.8477ZM28.6689 32.4336L28.6741 32.1836L28.5857 32.1818L28.5158 32.236L28.6689 32.4336ZM29.8652 32.8633L30.0285 32.674L30.0281 32.6736L29.8652 32.8633ZM30.3486 33.7422L30.4557 33.9681L30.627 33.8869L30.595 33.7L30.3486 33.7422ZM29.4209 34.1816V34.4316H29.4771L29.5279 34.4076L29.4209 34.1816ZM29.3721 34.1816H29.1221V34.4316H29.3721V34.1816ZM29.2256 33.5078L29.031 33.6648L29.0314 33.6653L29.2256 33.5078ZM27.9268 33.4688L27.7312 33.313L27.7311 33.3132L27.9268 33.4688ZM28.0391 34.4355L27.8952 34.64L27.8957 34.6404L28.0391 34.4355ZM30.1729 34.9434L30.0074 35.1308L30.0079 35.1312L30.1729 34.9434ZM30.6953 36.6279L30.8483 36.8257L30.9453 36.7506V36.6279H30.6953ZM28.6861 37.9459C28.1006 37.9056 27.6837 37.7588 27.4058 37.5326L27.0903 37.9205C27.4764 38.2347 28.0068 38.4004 28.6518 38.4447L28.6861 37.9459ZM27.4059 37.5327C27.0736 37.2621 26.8926 36.8579 26.8926 36.2764H26.3926C26.3926 36.9709 26.6152 37.5335 27.0902 37.9204L27.4059 37.5327ZM26.7496 36.5023L27.6773 36.0628L27.4633 35.611L26.5356 36.0504L26.7496 36.5023ZM27.5703 36.0869H27.6191V35.5869H27.5703V36.0869ZM27.3691 35.8369V36.2764H27.8691V35.8369H27.3691ZM27.3691 36.2764C27.3691 36.7131 27.4872 37.0851 27.7685 37.3404L28.1045 36.9702C27.9626 36.8413 27.8691 36.6274 27.8691 36.2764H27.3691ZM27.7706 37.3423C28.0212 37.5646 28.3255 37.6738 28.6689 37.6738V37.1738C28.4395 37.1738 28.2555 37.1041 28.1024 36.9683L27.7706 37.3423ZM28.6689 37.6738C29.0395 37.6738 29.36 37.5536 29.6055 37.2998L29.2461 36.9522C29.1075 37.0955 28.9234 37.1738 28.6689 37.1738V37.6738ZM29.604 37.3013C29.8582 37.0429 29.9688 36.6904 29.9688 36.2812H29.4688C29.4688 36.6013 29.384 36.812 29.2475 36.9507L29.604 37.3013ZM29.9688 36.2812C29.9688 35.8677 29.844 35.513 29.5244 35.3126L29.2588 35.7362C29.3754 35.8093 29.4688 35.9592 29.4688 36.2812H29.9688ZM29.5234 35.312C29.2839 35.1633 28.9918 35.0986 28.6641 35.0986V35.5986C28.9288 35.5986 29.1217 35.6511 29.2598 35.7368L29.5234 35.312ZM28.6641 35.0986C27.9293 35.0986 27.4911 34.9274 27.2626 34.6592L26.882 34.9834C27.2524 35.4183 27.8754 35.5986 28.6641 35.5986V35.0986ZM27.264 34.6609C27.175 34.5544 27.0977 34.3086 27.0977 33.8447H26.5977C26.5977 34.3249 26.6701 34.7301 26.8805 34.9817L27.264 34.6609ZM27.0008 34.0423L28.8221 32.6312L28.5158 32.236L26.6945 33.6471L27.0008 34.0423ZM28.6638 32.6835C29.0884 32.6923 29.4294 32.8186 29.7024 33.053L30.0281 32.6736C29.6566 32.3546 29.2 32.1945 28.6741 32.1836L28.6638 32.6835ZM29.702 33.0526C29.9154 33.2367 30.0495 33.4762 30.1022 33.7844L30.595 33.7C30.5241 33.2855 30.3359 32.9391 30.0285 32.674L29.702 33.0526ZM30.2416 33.5163L29.3139 33.9557L29.5279 34.4076L30.4557 33.9681L30.2416 33.5163ZM29.4209 33.9316H29.3721V34.4316H29.4209V33.9316ZM29.6221 34.1816V34.04H29.1221V34.1816H29.6221ZM29.6221 34.04C29.6221 33.7764 29.5679 33.5331 29.4198 33.3504L29.0314 33.6653C29.0785 33.7234 29.1221 33.8349 29.1221 34.04H29.6221ZM29.4202 33.3509C29.2052 33.0843 28.9075 32.9551 28.5566 32.9551V33.4551C28.7722 33.4551 28.9205 33.5277 29.031 33.6648L29.4202 33.3509ZM28.5566 32.9551C28.2211 32.9551 27.9301 33.0633 27.7312 33.313L28.1223 33.6245C28.2034 33.5227 28.3323 33.4551 28.5566 33.4551V32.9551ZM27.7311 33.3132C27.59 33.4906 27.5254 33.704 27.5254 33.9375H28.0254C28.0254 33.7999 28.0617 33.7008 28.1225 33.6243L27.7311 33.3132ZM27.5254 33.9375C27.5254 34.2302 27.6554 34.4712 27.8952 34.64L28.1829 34.2311C28.0712 34.1525 28.0254 34.0615 28.0254 33.9375H27.5254ZM27.8957 34.6404C27.9905 34.7067 28.1112 34.74 28.2281 34.7592C28.3505 34.7792 28.4971 34.7881 28.6641 34.7881V34.2881C28.512 34.2881 28.3949 34.2798 28.309 34.2657C28.2664 34.2588 28.2348 34.2509 28.2125 34.2434C28.1895 34.2357 28.1816 34.2302 28.1824 34.2307L27.8957 34.6404ZM28.6641 34.7881C29.3429 34.7881 29.7701 34.9212 30.0074 35.1308L30.3383 34.756C29.9637 34.4251 29.3849 34.2881 28.6641 34.2881V34.7881ZM30.0079 35.1312C30.2727 35.3639 30.4453 35.8312 30.4453 36.6279H30.9453C30.9453 35.7905 30.7696 35.1348 30.3379 34.7555L30.0079 35.1312ZM30.5424 36.4302L28.516 37.9976L28.8219 38.3931L30.8483 36.8257L30.5424 36.4302ZM32.624 38.1953H32.374V38.4453H32.624V38.1953ZM32.624 33.2637H32.874V33.0137H32.624V33.2637ZM31.3057 33.2637H31.0557V33.5137H31.3057V33.2637ZM31.3057 33.2148L31.0798 33.1076L31.0557 33.1585V33.2148H31.3057ZM31.584 32.6289V32.3789H31.426L31.3582 32.5216L31.584 32.6289ZM32.624 32.6289V32.8789H32.874V32.6289H32.624ZM32.624 30.8711L32.517 30.6452L32.374 30.7129V30.8711H32.624ZM33.5518 30.4316V30.1816H33.4955L33.4447 30.2057L33.5518 30.4316ZM33.6006 30.4316H33.8506V30.1816H33.6006V30.4316ZM33.6006 32.6289H33.3506V32.8789H33.6006V32.6289ZM34.9189 32.6289H35.1689V32.3789H34.9189V32.6289ZM34.9189 32.6777L35.1448 32.785L35.1689 32.7341V32.6777H34.9189ZM34.6406 33.2637V33.5137H34.7986L34.8664 33.3709L34.6406 33.2637ZM33.6006 33.2637V33.0137H33.3506V33.2637H33.6006ZM33.6006 37.7559L33.7076 37.9818L33.8506 37.9141V37.7559H33.6006ZM32.6729 38.1953V38.4453H32.7291L32.7799 38.4212L32.6729 38.1953ZM32.874 38.1953V33.2637H32.374V38.1953H32.874ZM32.624 33.0137H31.3057V33.5137H32.624V33.0137ZM31.5557 33.2637V33.2148H31.0557V33.2637H31.5557ZM31.5315 33.3221L31.8098 32.7362L31.3582 32.5216L31.0798 33.1076L31.5315 33.3221ZM31.584 32.8789H32.624V32.3789H31.584V32.8789ZM32.874 32.6289V30.8711H32.374V32.6289H32.874ZM32.731 31.097L33.6588 30.6576L33.4447 30.2057L32.517 30.6452L32.731 31.097ZM33.5518 30.6816H33.6006V30.1816H33.5518V30.6816ZM33.3506 30.4316V32.6289H33.8506V30.4316H33.3506ZM33.6006 32.8789H34.9189V32.3789H33.6006V32.8789ZM34.6689 32.6289V32.6777H35.1689V32.6289H34.6689ZM34.6931 32.5705L34.4148 33.1564L34.8664 33.3709L35.1448 32.785L34.6931 32.5705ZM34.6406 33.0137H33.6006V33.5137H34.6406V33.0137ZM33.3506 33.2637V37.7559H33.8506V33.2637H33.3506ZM33.4936 37.5299L32.5658 37.9694L32.7799 38.4212L33.7076 37.9818L33.4936 37.5299ZM32.6729 37.9453H32.624V38.4453H32.6729V37.9453Z" fill="#5A4D46"/>
</svg>
